<svg width="29" height="26" viewBox="0 0 29 26" fill="none" xmlns="http://www.w3.org/2000/svg">
<mask id="path-1-inside-1" fill="white">
<path fill-rule="evenodd" clip-rule="evenodd" d="M29 4.16667C29 1.86548 27.1345 0 24.8333 0H16.1667C13.8655 0 12 1.86548 12 4.16667V6.83333C12 9.13452 10.1345 11 7.83333 11H4.16667C1.86548 11 0 12.8655 0 15.1667V21.8333C0 24.1345 1.86548 26 4.16667 26H12H20H24.8333C27.1345 26 29 24.1345 29 21.8333V4.16667Z"/>
</mask>
<path d="M16.1667 1H24.8333V-1H16.1667V1ZM13 6.83333V4.16667H11V6.83333H13ZM4.16667 12H7.83333V10H4.16667V12ZM1 21.8333V15.1667H-1V21.8333H1ZM12 25H4.16667V27H12V25ZM20 25H12V27H20V25ZM24.8333 25H20V27H24.8333V25ZM28 4.16667V21.8333H30V4.16667H28ZM24.8333 27C27.6868 27 30 24.6868 30 21.8333H28C28 23.5822 26.5822 25 24.8333 25V27ZM-1 21.8333C-1 24.6868 1.3132 27 4.16667 27V25C2.41776 25 1 23.5822 1 21.8333H-1ZM4.16667 10C1.3132 10 -1 12.3132 -1 15.1667H1C1 13.4178 2.41776 12 4.16667 12V10ZM11 6.83333C11 8.58223 9.58224 10 7.83333 10V12C10.6868 12 13 9.6868 13 6.83333H11ZM24.8333 1C26.5822 1 28 2.41776 28 4.16667H30C30 1.3132 27.6868 -1 24.8333 -1V1ZM16.1667 -1C13.3132 -1 11 1.3132 11 4.16667H13C13 2.41777 14.4178 1 16.1667 1V-1Z" fill="#EBEBEB" mask="url(#path-1-inside-1)"/>
<path d="M11.6464 16.8687C11.4512 17.0639 11.4512 17.3805 11.6464 17.5758L14.8284 20.7578C15.0237 20.953 15.3403 20.953 15.5355 20.7578C15.7308 20.5625 15.7308 20.2459 15.5355 20.0506L12.7071 17.2222L15.5355 14.3938C15.7308 14.1985 15.7308 13.882 15.5355 13.6867C15.3403 13.4914 15.0237 13.4914 14.8284 13.6867L11.6464 16.8687ZM19.5 11V14.253H20.5V11H19.5ZM17.0308 16.7222H12V17.7222H17.0308V16.7222ZM19.5 14.253C19.5 15.6167 18.3945 16.7222 17.0308 16.7222V17.7222C18.9468 17.7222 20.5 16.169 20.5 14.253H19.5Z" fill="#EBEBEB"/>
</svg>