<svg width="11" height="11" viewBox="0 0 11 11" fill="none" xmlns="http://www.w3.org/2000/svg">
<rect x="0.5" y="0.5" width="10" height="10" rx="1.5" fill="#EBEBEB" stroke="#EBEBEB"/>
<path d="M7.10043 9.65C7.0071 9.65 6.93043 9.62667 6.87043 9.58C6.8171 9.54 6.7671 9.48667 6.72043 9.42L6.38043 8.97C6.1271 9.05667 5.83043 9.1 5.49043 9.1C4.55043 9.1 3.81043 8.87 3.27043 8.41C2.7371 7.95 2.45376 7.27333 2.42043 6.38C2.41376 6.18667 2.41043 5.9 2.41043 5.52C2.41043 5.13333 2.41376 4.84333 2.42043 4.65C2.4471 3.77 2.73376 3.09333 3.28043 2.62C3.83376 2.14 4.57043 1.9 5.49043 1.9C6.41043 1.9 7.1471 2.14 7.70043 2.62C8.25376 3.09333 8.54376 3.77 8.57043 4.65C8.58376 5.03667 8.59043 5.32667 8.59043 5.52C8.59043 5.70667 8.58376 5.99333 8.57043 6.38C8.54376 7.2 8.30376 7.84 7.85043 8.3L8.58043 9.34C8.60043 9.38 8.61043 9.41333 8.61043 9.44V9.46C8.61043 9.51333 8.59043 9.55667 8.55043 9.59C8.51043 9.63 8.46376 9.65 8.41043 9.65H7.10043ZM5.49043 7.66C5.8571 7.66 6.1471 7.55 6.36043 7.33C6.58043 7.11 6.6971 6.77333 6.71043 6.32C6.72376 5.93333 6.73043 5.66 6.73043 5.5C6.73043 5.32667 6.72376 5.05333 6.71043 4.68C6.6971 4.22667 6.58043 3.89 6.36043 3.67C6.1471 3.45 5.8571 3.34 5.49043 3.34C5.13043 3.34 4.84043 3.45 4.62043 3.67C4.4071 3.89 4.29376 4.22667 4.28043 4.68C4.27376 4.86667 4.27043 5.14 4.27043 5.5C4.27043 5.85333 4.27376 6.12667 4.28043 6.32C4.29376 6.77333 4.4071 7.11 4.62043 7.33C4.83376 7.55 5.12376 7.66 5.49043 7.66Z" fill="#212224"/>
</svg>